<svg width="6" height="9" viewBox="0 0 6 9" fill="none" xmlns="http://www.w3.org/2000/svg">
<path d="M5.736 8.568H0C0.00800004 7.872 0.175998 7.264 0.504 6.744C0.832002 6.224 1.28 5.772 1.848 5.388C2.12 5.188 2.404 4.994 2.7 4.806C2.996 4.618 3.268 4.416 3.516 4.2C3.764 3.984 3.968 3.75 4.128 3.498C4.288 3.246 4.372 2.956 4.38 2.628C4.38 2.476 4.362 2.314 4.326 2.142C4.29 1.97 4.22 1.81 4.116 1.662C4.012 1.514 3.868 1.39 3.684 1.29C3.5 1.19 3.26 1.14 2.964 1.14C2.692 1.14 2.466 1.194 2.286 1.302C2.106 1.41 1.962 1.558 1.854 1.746C1.746 1.934 1.666 2.156 1.614 2.412C1.562 2.668 1.532 2.944 1.524 3.24H0.156C0.156 2.776 0.217999 2.346 0.342 1.95C0.466001 1.554 0.651999 1.212 0.9 0.924C1.148 0.635999 1.45 0.410001 1.806 0.246C2.162 0.0819992 2.576 0 3.048 0C3.56 0 3.988 0.0839992 4.332 0.252C4.676 0.420001 4.954 0.631999 5.166 0.888C5.378 1.144 5.528 1.422 5.616 1.722C5.704 2.022 5.748 2.308 5.748 2.58C5.748 2.916 5.696 3.22 5.592 3.492C5.488 3.764 5.348 4.014 5.172 4.242C4.996 4.47 4.796 4.68 4.572 4.872C4.348 5.064 4.116 5.244 3.876 5.412C3.636 5.58 3.396 5.74 3.156 5.892C2.916 6.044 2.694 6.196 2.49 6.348C2.286 6.5 2.108 6.658 1.956 6.822C1.804 6.986 1.7 7.16 1.644 7.344H5.736V8.568Z" fill="#2A292A"/>
</svg>
