<svg width="25" height="25" viewBox="0 0 25 25" fill="none" xmlns="http://www.w3.org/2000/svg">
<path fill-rule="evenodd" clip-rule="evenodd" d="M14.5703 18.9492C14.5703 20.0492 13.6703 20.9492 12.5703 20.9492C11.4703 20.9492 10.5703 20.0492 10.5703 18.9492C10.5703 17.8492 11.4703 16.9492 12.5703 16.9492C13.6703 16.9492 14.5703 17.8492 14.5703 18.9492ZM12.5703 10.9492C11.4703 10.9492 10.5703 11.8492 10.5703 12.9492C10.5703 14.0492 11.4703 14.9492 12.5703 14.9492C13.6703 14.9492 14.5703 14.0492 14.5703 12.9492C14.5703 11.8492 13.6703 10.9492 12.5703 10.9492ZM12.5703 4.94922C11.4703 4.94922 10.5703 5.84922 10.5703 6.94922C10.5703 8.04922 11.4703 8.94922 12.5703 8.94922C13.6703 8.94922 14.5703 8.04922 14.5703 6.94922C14.5703 5.84922 13.6703 4.94922 12.5703 4.94922Z" fill="white"/>
</svg>
