<svg width="15" height="15" viewBox="0 0 15 15" fill="none" xmlns="http://www.w3.org/2000/svg">
<path d="M12.6512 9.03992C12.1442 8.52433 11.5113 8.52433 11.0076 9.03992C10.6233 9.43243 10.239 9.82495 9.86123 10.2241C9.7579 10.3339 9.67071 10.3572 9.54478 10.284C9.29614 10.1443 9.03136 10.0312 8.7924 9.87817C7.67837 9.15634 6.74517 8.22828 5.91852 7.18378C5.50843 6.66487 5.14354 6.10936 4.88844 5.48399C4.83678 5.35759 4.84646 5.27443 4.94657 5.17131C5.33083 4.78877 5.7054 4.39626 6.0832 4.00374C6.60954 3.45821 6.60954 2.81954 6.07997 2.27069C5.77967 1.95801 5.47936 1.65198 5.17906 1.33929C4.86907 1.01996 4.56231 0.697298 4.24908 0.38129C3.74212 -0.12765 3.10922 -0.12765 2.60548 0.384616C2.21799 0.777132 1.84665 1.17963 1.4527 1.56549C1.08781 1.92141 0.903754 2.35717 0.865005 2.86611C0.803653 3.69439 1.00063 4.47609 1.27833 5.23784C1.84665 6.81455 2.71204 8.21497 3.76149 9.49896C5.17906 11.2353 6.8711 12.6091 8.85053 13.6004C9.74175 14.0462 10.6653 14.3888 11.6695 14.4453C12.3605 14.4852 12.9611 14.3056 13.4423 13.7501C13.7716 13.3709 14.143 13.0249 14.4917 12.6624C15.0084 12.1235 15.0116 11.4715 14.4982 10.9393C13.8847 10.304 13.2679 9.67193 12.6512 9.03992Z" fill="#66332B"/>
</svg>
