<svg width="21" height="20" viewBox="0 0 21 20" fill="none" xmlns="http://www.w3.org/2000/svg">
<path fill-rule="evenodd" clip-rule="evenodd" d="M1.19737 8.89027L9.15215 0.537761C9.63749 0.0281538 10.4246 0.0281538 10.91 0.537761C11.3954 1.04747 11.3954 1.87375 10.91 2.38346L5.07702 8.50804H18.9237C19.6101 8.50804 20.1666 9.0924 20.1666 9.81312C20.1666 10.5337 19.6101 11.1182 18.9237 11.1182H5.07702L10.9098 17.2428C11.3952 17.7525 11.3952 18.5788 10.9098 19.0885C10.6671 19.3431 10.3489 19.4707 10.0309 19.4707C9.71276 19.4707 9.39467 19.3431 9.15195 19.0885L1.19737 10.736C0.711934 10.2263 0.711934 9.39999 1.19737 8.89027Z" fill="white"/>
</svg>
