<svg width="25" height="24" viewBox="0 0 25 24" fill="none" xmlns="http://www.w3.org/2000/svg">
<path fill-rule="evenodd" clip-rule="evenodd" d="M5.92812 6.0004H19.0659C19.4527 6.0004 19.7874 6.14499 20.0701 6.43402C20.3525 6.72341 20.494 7.07087 20.494 7.47693C20.494 7.96295 20.3481 8.42743 20.057 8.87024C19.7654 9.31305 19.4025 9.69156 18.9682 10.0052C17.5241 11.0415 16.4343 11.8239 15.6944 12.3554C15.2877 12.6474 14.9853 12.8648 14.7912 13.0044C14.7624 13.0254 14.7174 13.0584 14.6577 13.1027C14.5934 13.1503 14.512 13.211 14.4118 13.2859C14.2184 13.4305 14.0577 13.5474 13.9298 13.6367C13.8016 13.7258 13.647 13.8258 13.4656 13.9366C13.284 14.0474 13.113 14.1304 12.9524 14.1857C12.7917 14.241 12.6429 14.2688 12.5061 14.2688H12.4972H12.4884C12.3515 14.2688 12.2028 14.241 12.0421 14.1857C11.8815 14.1304 11.7103 14.0472 11.5289 13.9366C11.3473 13.8258 11.1925 13.726 11.0647 13.6367C10.9368 13.5474 10.7761 13.4305 10.5828 13.2859C10.4823 13.211 10.401 13.1503 10.3366 13.1026L10.3305 13.098C10.2738 13.0561 10.231 13.0244 10.2033 13.0044C9.9542 12.8233 9.65244 12.605 9.30253 12.3529C8.89201 12.0569 8.41431 11.7138 7.86499 11.3202C6.84741 10.5913 6.2375 10.153 6.03525 10.0052C5.66632 9.74686 5.31818 9.39169 4.99101 8.93951C4.66383 8.48715 4.50017 8.06728 4.50017 7.67977C4.50017 7.20003 4.6235 6.8 4.87056 6.48014C5.11741 6.16042 5.46979 6.0004 5.92812 6.0004ZM4.5 10.1899C4.76178 10.4914 5.06247 10.7591 5.40155 10.9928C6.66543 11.8808 7.69492 12.612 8.49393 13.1887L4.5 17.3181V10.1899ZM20.0018 18.6284C19.7369 18.8707 19.4254 18.9935 19.0659 18.9935H5.92809C5.5686 18.9935 5.25688 18.8707 4.99208 18.6284L9.52432 13.9419C9.63768 14.026 9.74254 14.1047 9.83709 14.1763C10.1764 14.4347 10.4514 14.6362 10.6628 14.7807C10.8739 14.9254 11.155 15.073 11.5062 15.2236C11.8573 15.3745 12.1845 15.4497 12.488 15.4497H12.4969H12.5058C12.8093 15.4497 13.1365 15.3745 13.4877 15.2236C13.8386 15.073 14.1198 14.9254 14.3311 14.7807C14.5424 14.6362 14.8176 14.4346 15.1568 14.1763C15.2563 14.1019 15.3617 14.0236 15.4704 13.9431L20.0018 18.6284ZM19.6015 10.9928C18.3859 11.8436 17.3526 12.5759 16.5017 13.1904L20.494 17.3183V10.1899C20.2381 10.4853 19.9406 10.7528 19.6015 10.9928Z" fill="#66332B"/>
</svg>
