<svg width="41" height="40" viewBox="0 0 41 40" fill="none" xmlns="http://www.w3.org/2000/svg">
<path d="M40.6249 20C40.6249 23.9556 39.4336 27.8224 37.2016 31.1114C34.9697 34.4004 31.7973 36.9638 28.0857 38.4776C24.3741 39.9913 20.2899 40.3874 16.3497 39.6157C12.4095 38.844 8.79012 36.9392 5.94938 34.1421C3.10863 31.3451 1.17406 27.7814 0.390299 23.9018C-0.393461 20.0222 0.00879338 16.0008 1.54619 12.3463C3.08359 8.69181 5.68709 5.56823 9.02746 3.37061C12.3678 1.17298 16.295 0 20.3124 0C25.6996 0 30.8662 2.10714 34.6755 5.85786C38.4848 9.60859 40.6249 14.6957 40.6249 20Z" fill="#ED357E"/>
<path d="M11.375 18.4V16.056H13.4492V15.0697C13.4287 14.5607 13.5104 14.0526 13.6896 13.5747C13.8689 13.0967 14.1422 12.6583 14.4938 12.2846C14.9183 11.8976 15.4197 11.6014 15.9663 11.4147C16.5129 11.2281 17.0928 11.155 17.6695 11.2C17.9791 11.2 18.2886 11.2122 18.5981 11.2366C18.9076 11.261 19.2083 11.2816 19.5 11.2983V13.9109C19.079 13.8606 18.6554 13.8358 18.2313 13.8366C18.0481 13.819 17.8631 13.8396 17.6885 13.8971C17.5139 13.9546 17.3536 14.0477 17.218 14.1703C16.9829 14.4963 16.8746 14.8946 16.9128 15.2926V16.056H19.3038V18.4H16.9139V28.8H13.4492V18.4H11.375Z" fill="#FEFEFE"/>
<path d="M25.6228 28.8004V18.4644H21.125V16.1375C21.7371 16.1535 22.3493 16.1075 22.952 16.0004C23.5084 15.9075 24.0444 15.7207 24.5363 15.4484C25.0025 15.1861 25.4074 14.8302 25.7249 14.4038C26.066 13.9279 26.2851 13.3778 26.3633 12.8004H29.25V28.8004H25.6228Z" fill="#FEFEFE"/>
</svg>
