<svg width="15" height="16" viewBox="0 0 15 16" fill="none" xmlns="http://www.w3.org/2000/svg">
<path fill-rule="evenodd" clip-rule="evenodd" d="M10.9703 8.8H8.57031C8.13031 8.8 7.77031 9.16 7.77031 9.6V12C7.77031 12.44 8.13031 12.8 8.57031 12.8H10.9703C11.4103 12.8 11.7703 12.44 11.7703 12V9.6C11.7703 9.16 11.4103 8.8 10.9703 8.8ZM10.9703 0.8V1.6H4.57031V0.8C4.57031 0.36 4.21031 0 3.77031 0C3.33031 0 2.97031 0.36 2.97031 0.8V1.6H2.17031C1.28231 1.6 0.578313 2.32 0.578313 3.2L0.570312 14.4C0.570312 15.28 1.28231 16 2.17031 16H13.3703C14.2503 16 14.9703 15.28 14.9703 14.4V3.2C14.9703 2.32 14.2503 1.6 13.3703 1.6H12.5703V0.8C12.5703 0.36 12.2103 0 11.7703 0C11.3303 0 10.9703 0.36 10.9703 0.8ZM12.5703 14.4H2.97031C2.53031 14.4 2.17031 14.04 2.17031 13.6V5.6H13.3703V13.6C13.3703 14.04 13.0103 14.4 12.5703 14.4Z" fill="#8894A0"/>
</svg>
