<svg width="20" height="20" viewBox="0 0 20 20" fill="none" xmlns="http://www.w3.org/2000/svg">
<path fill-rule="evenodd" clip-rule="evenodd" d="M4.33366 5.33335C4.88594 5.33335 5.33366 4.88564 5.33366 4.33335V1.66669C5.33366 1.1144 4.88594 0.666687 4.33366 0.666687H1.66699C1.11471 0.666687 0.666992 1.1144 0.666992 1.66669V4.33335C0.666992 4.88564 1.11471 5.33335 1.66699 5.33335H4.33366ZM11.3337 19.3334C11.8859 19.3334 12.3337 18.8856 12.3337 18.3334V15.6667C12.3337 15.1144 11.8859 14.6667 11.3337 14.6667H8.66699C8.11471 14.6667 7.66699 15.1144 7.66699 15.6667V18.3334C7.66699 18.8856 8.11471 19.3334 8.66699 19.3334H11.3337ZM4.33366 19.3334C4.88594 19.3334 5.33366 18.8856 5.33366 18.3334V15.6667C5.33366 15.1144 4.88594 14.6667 4.33366 14.6667H1.66699C1.11471 14.6667 0.666992 15.1144 0.666992 15.6667V18.3334C0.666992 18.8856 1.11471 19.3334 1.66699 19.3334H4.33366ZM4.33366 12.3334C4.88594 12.3334 5.33366 11.8856 5.33366 11.3334V8.66669C5.33366 8.1144 4.88594 7.66669 4.33366 7.66669H1.66699C1.11471 7.66669 0.666992 8.1144 0.666992 8.66669V11.3334C0.666992 11.8856 1.11471 12.3334 1.66699 12.3334H4.33366ZM11.3337 12.3334C11.8859 12.3334 12.3337 11.8856 12.3337 11.3334V8.66669C12.3337 8.1144 11.8859 7.66669 11.3337 7.66669H8.66699C8.11471 7.66669 7.66699 8.1144 7.66699 8.66669V11.3334C7.66699 11.8856 8.11471 12.3334 8.66699 12.3334H11.3337ZM14.667 4.33335C14.667 4.88564 15.1147 5.33335 15.667 5.33335H18.3337C18.8859 5.33335 19.3337 4.88564 19.3337 4.33335V1.66669C19.3337 1.1144 18.8859 0.666687 18.3337 0.666687H15.667C15.1147 0.666687 14.667 1.1144 14.667 1.66669V4.33335ZM11.3337 5.33335C11.8859 5.33335 12.3337 4.88564 12.3337 4.33335V1.66669C12.3337 1.1144 11.8859 0.666687 11.3337 0.666687H8.66699C8.11471 0.666687 7.66699 1.1144 7.66699 1.66669V4.33335C7.66699 4.88564 8.11471 5.33335 8.66699 5.33335H11.3337ZM18.3337 12.3334C18.8859 12.3334 19.3337 11.8856 19.3337 11.3334V8.66669C19.3337 8.1144 18.8859 7.66669 18.3337 7.66669H15.667C15.1147 7.66669 14.667 8.1144 14.667 8.66669V11.3334C14.667 11.8856 15.1147 12.3334 15.667 12.3334H18.3337ZM18.3337 19.3334C18.8859 19.3334 19.3337 18.8856 19.3337 18.3334V15.6667C19.3337 15.1144 18.8859 14.6667 18.3337 14.6667H15.667C15.1147 14.6667 14.667 15.1144 14.667 15.6667V18.3334C14.667 18.8856 15.1147 19.3334 15.667 19.3334H18.3337Z" fill="#525960"/>
</svg>
