<svg width="12" height="12" viewBox="0 0 12 12" fill="none" xmlns="http://www.w3.org/2000/svg">
<path fill-rule="evenodd" clip-rule="evenodd" d="M5.49166 11.1328L0.879039 6.74395C0.597612 6.47617 0.597612 6.0419 0.879039 5.77412C1.16052 5.50629 1.61683 5.50629 1.89831 5.77412L5.28057 8.99229L5.28057 1.35275C5.28057 0.974046 5.60328 0.666992 6.00129 0.666992C6.39925 0.666992 6.72202 0.974046 6.72202 1.35275L6.72202 8.99229L10.1043 5.77423C10.3858 5.5064 10.8421 5.5064 11.1236 5.77423C11.2642 5.90809 11.3346 6.08364 11.3346 6.25914C11.3346 6.43464 11.2642 6.61014 11.1236 6.74406L6.51093 11.1328C6.22945 11.4006 5.77314 11.4006 5.49166 11.1328Z" fill="#E4E4E4"/>
</svg>
