<svg width="20" height="20" viewBox="0 0 20 20" fill="none" xmlns="http://www.w3.org/2000/svg">
<path fill-rule="evenodd" clip-rule="evenodd" d="M10 0C4.48 0 0 4.48 0 10C0 15.52 4.48 20 10 20C15.52 20 20 15.52 20 10C20 4.48 15.52 0 10 0ZM9 17V15H11V17H9ZM12.17 10.17L13.07 9.25C13.64 8.68 14 7.88 14 7C14 4.79 12.21 3 10 3C7.79 3 6 4.79 6 7H8C8 5.9 8.9 5 10 5C11.1 5 12 5.9 12 7C12 7.55 11.78 8.05 11.41 8.41L10.17 9.67C9.45 10.4 9 11.4 9 12.5V13H11C11 11.5 11.45 10.9 12.17 10.17Z" fill="#8894A0"/>
</svg>
