<svg width="25" height="25" viewBox="0 0 25 25" fill="none" xmlns="http://www.w3.org/2000/svg">
<path fill-rule="evenodd" clip-rule="evenodd" d="M18.7015 7.25497V10.9238V14.8539V18.9702C18.7015 19.7361 18.0736 20.3591 17.3018 20.3591H7.97007C7.19824 20.3591 6.57031 19.7361 6.57031 18.9702V5.94553C6.57031 5.1797 7.19824 4.55664 7.97007 4.55664H15.9821C16.356 4.55664 16.7075 4.70109 16.9719 4.96343L18.2915 6.27291C18.5559 6.53522 18.7015 6.88399 18.7015 7.25497ZM15.9246 5.48265L15.9023 5.48285V7.3347H17.7687L17.7688 7.3149C17.7695 7.21524 17.7706 7.06541 17.632 6.92791L16.3123 5.61843C16.1723 5.47954 16.0171 5.48149 15.9246 5.48265ZM17.7681 18.9701C17.7681 19.2254 17.5588 19.433 17.3015 19.433H7.96982C7.71255 19.433 7.50324 19.2254 7.50324 18.9701V5.94538C7.50324 5.69011 7.71255 5.48242 7.96982 5.48242H14.9686V7.79724C14.9686 8.05292 15.1775 8.2602 15.4352 8.2602H17.7681V11.6113H17.7756V18.4967H17.7681V18.9701Z" fill="#2A292A"/>
<path d="M16.9719 4.96343L16.831 5.10539L16.831 5.1054L16.9719 4.96343ZM18.2915 6.27291L18.1506 6.41487L18.1507 6.41489L18.2915 6.27291ZM15.9023 5.48285L15.9006 5.28285L15.7023 5.28457V5.48285H15.9023ZM15.9246 5.48265L15.9263 5.68265L15.9271 5.68264L15.9246 5.48265ZM15.9023 7.3347H15.7023V7.5347H15.9023V7.3347ZM17.7687 7.3347V7.5347H17.9677L17.9687 7.33566L17.7687 7.3347ZM17.7688 7.3149L17.5688 7.31347L17.5688 7.31393L17.7688 7.3149ZM17.632 6.92791L17.7729 6.78595L17.7729 6.78594L17.632 6.92791ZM16.3123 5.61843L16.4532 5.47646L16.4532 5.47645L16.3123 5.61843ZM14.9686 5.48242H15.1686V5.28242H14.9686V5.48242ZM17.7681 8.2602H17.9681V8.0602H17.7681V8.2602ZM17.7681 11.6113H17.5681V11.8113H17.7681V11.6113ZM17.7756 11.6113H17.9756V11.4113H17.7756V11.6113ZM17.7756 18.4967V18.6967H17.9756V18.4967H17.7756ZM17.7681 18.4967V18.2967H17.5681V18.4967H17.7681ZM18.9015 10.9238V7.25497H18.5015V10.9238H18.9015ZM18.9015 14.8539V10.9238H18.5015V14.8539H18.9015ZM18.9015 18.9702V14.8539H18.5015V18.9702H18.9015ZM17.3018 20.5591C18.1826 20.5591 18.9015 19.848 18.9015 18.9702H18.5015C18.5015 19.6241 17.9646 20.1591 17.3018 20.1591V20.5591ZM7.97007 20.5591H17.3018V20.1591H7.97007V20.5591ZM6.37031 18.9702C6.37031 19.848 7.08926 20.5591 7.97007 20.5591V20.1591C7.30723 20.1591 6.77031 19.6241 6.77031 18.9702H6.37031ZM6.37031 5.94553V18.9702H6.77031V5.94553H6.37031ZM7.97007 4.35664C7.08926 4.35664 6.37031 5.06777 6.37031 5.94553H6.77031C6.77031 5.29162 7.30723 4.75664 7.97007 4.75664V4.35664ZM15.9821 4.35664H7.97007V4.75664H15.9821V4.35664ZM17.1127 4.82147C16.8107 4.52177 16.4085 4.35664 15.9821 4.35664V4.75664C16.3034 4.75664 16.6042 4.8804 16.831 5.10539L17.1127 4.82147ZM18.4324 6.13094L17.1127 4.82146L16.831 5.1054L18.1506 6.41487L18.4324 6.13094ZM18.9015 7.25497C18.9015 6.83043 18.7345 6.43063 18.4324 6.13093L18.1507 6.41489C18.3774 6.63981 18.5015 6.93754 18.5015 7.25497H18.9015ZM15.9041 5.68284L15.9263 5.68265L15.9229 5.28266L15.9006 5.28285L15.9041 5.68284ZM16.1023 7.3347V5.48285H15.7023V7.3347H16.1023ZM17.7687 7.1347H15.9023V7.5347H17.7687V7.1347ZM17.5688 7.31393L17.5687 7.33374L17.9687 7.33566L17.9688 7.31586L17.5688 7.31393ZM17.4911 7.06986C17.5671 7.14532 17.5695 7.2192 17.5688 7.31347L17.9688 7.31632C17.9695 7.21127 17.974 6.9855 17.7729 6.78595L17.4911 7.06986ZM16.1714 5.7604L17.4911 7.06988L17.7729 6.78594L16.4532 5.47646L16.1714 5.7604ZM15.9271 5.68264C16.0141 5.68154 16.0938 5.68333 16.1715 5.76042L16.4532 5.47645C16.2509 5.27574 16.02 5.28144 15.9221 5.28267L15.9271 5.68264ZM17.3015 19.633C17.6678 19.633 17.9681 19.3373 17.9681 18.9701H17.5681C17.5681 19.1134 17.4498 19.233 17.3015 19.233V19.633ZM7.96982 19.633H17.3015V19.233H7.96982V19.633ZM7.30324 18.9701C7.30324 19.3373 7.60356 19.633 7.96982 19.633V19.233C7.82153 19.233 7.70324 19.1134 7.70324 18.9701H7.30324ZM7.30324 5.94538V18.9701H7.70324V5.94538H7.30324ZM7.96982 5.28242C7.60356 5.28242 7.30324 5.57818 7.30324 5.94538H7.70324C7.70324 5.80203 7.82153 5.68242 7.96982 5.68242V5.28242ZM14.9686 5.28242H7.96982V5.68242H14.9686V5.28242ZM15.1686 7.79724V5.48242H14.7686V7.79724H15.1686ZM15.4352 8.0602C15.2865 8.0602 15.1686 7.94099 15.1686 7.79724H14.7686C14.7686 8.16484 15.0685 8.4602 15.4352 8.4602V8.0602ZM17.7681 8.0602H15.4352V8.4602H17.7681V8.0602ZM17.9681 11.6113V8.2602H17.5681V11.6113H17.9681ZM17.7681 11.8113H17.7756V11.4113H17.7681V11.8113ZM17.5756 11.6113V18.4967H17.9756V11.6113H17.5756ZM17.7756 18.2967H17.7681V18.6967H17.7756V18.2967ZM17.9681 18.9701V18.4967H17.5681V18.9701H17.9681Z" fill="#2A292A"/>
<path d="M15.5422 9.29785H8.97312C8.71399 9.29785 8.50391 9.5 8.50391 9.74935C8.50391 9.9987 8.71399 10.2008 8.97312 10.2008H15.5422C15.8013 10.2008 16.0114 9.9987 16.0114 9.74935C16.0114 9.5 15.8013 9.29785 15.5422 9.29785Z" fill="#2A292A"/>
<path d="M13.6132 11.1035H8.96838C8.71187 11.1035 8.50391 11.3057 8.50391 11.555C8.50391 11.8044 8.71187 12.0065 8.96838 12.0065H13.6132C13.8697 12.0065 14.0776 11.8044 14.0776 11.555C14.0776 11.3057 13.8697 11.1035 13.6132 11.1035Z" fill="#2A292A"/>
<path d="M13.6132 12.9092H8.96838C8.71187 12.9092 8.50391 13.1113 8.50391 13.3607C8.50391 13.61 8.71187 13.8122 8.96838 13.8122H13.6132C13.8697 13.8122 14.0776 13.61 14.0776 13.3607C14.0776 13.1113 13.8697 12.9092 13.6132 12.9092Z" fill="#2A292A"/>
<path d="M15.5462 16.6504H12.7309C12.4718 16.6504 12.2617 16.8525 12.2617 17.1019C12.2617 17.3512 12.4718 17.5534 12.7309 17.5534H15.5462C15.8054 17.5534 16.0155 17.3512 16.0155 17.1019C16.0155 16.8525 15.8054 16.6504 15.5462 16.6504Z" fill="#2A292A"/>
</svg>
