<svg width="84" height="18" viewBox="0 0 84 18" fill="none" xmlns="http://www.w3.org/2000/svg">
<path d="M64.4345 17.5712C63.5213 17.5834 62.6135 17.4316 61.7556 17.1232C60.9853 16.8458 60.2854 16.407 59.7042 15.8371C59.123 15.2673 58.6745 14.5799 58.3895 13.8226C58.0706 12.978 57.9132 12.0825 57.9253 11.1815C57.9138 10.2767 58.0712 9.37765 58.3895 8.52889C58.6769 7.76855 59.1252 7.07707 59.7046 6.50032C60.289 5.93362 60.9861 5.492 61.7521 5.20318C62.6083 4.88766 63.5169 4.73261 64.431 4.74603C65.3493 4.73329 66.2619 4.88829 67.1227 5.20318C67.8934 5.48958 68.5948 5.93141 69.1818 6.50032C69.7613 7.07731 70.2099 7.7687 70.4981 8.52889C70.8159 9.37778 70.9733 10.2768 70.9624 11.1815C70.9739 12.0825 70.8165 12.9778 70.4981 13.8226C70.2077 14.578 69.7592 15.2649 69.1818 15.8386C68.5963 16.4063 67.8942 16.8443 67.1227 17.1232C66.2613 17.4305 65.3507 17.5823 64.4345 17.5712ZM64.4345 7.26603C63.9249 7.2486 63.42 7.36706 62.9732 7.60889C62.5943 7.82655 62.273 8.12924 62.0353 8.49232C61.7918 8.87464 61.6225 9.29822 61.5362 9.74146C61.4385 10.215 61.3895 10.6971 61.39 11.1803C61.3891 11.6594 61.4381 12.1373 61.5362 12.6066C61.6251 13.0491 61.7942 13.4722 62.0353 13.8557C62.2686 14.2226 62.5909 14.5266 62.9732 14.7403C63.4227 14.974 63.9265 15.0879 64.4345 15.0706C64.9465 15.0868 65.4542 14.9731 65.9086 14.7403C66.2961 14.529 66.6231 14.2247 66.8593 13.8557C67.1 13.472 67.2691 13.049 67.3584 12.6066C67.456 12.1373 67.505 11.6594 67.5046 11.1803C67.5046 10.6971 67.4556 10.2151 67.3584 9.74146C67.2717 9.29832 67.1025 8.87481 66.8593 8.49232C66.6187 8.12726 66.2927 7.82432 65.9086 7.60889C65.4568 7.36812 64.9481 7.24981 64.4345 7.26603ZM42.2626 17.5712C41.4035 17.5885 40.5523 17.4068 39.7775 17.0409C39.083 16.7031 38.4782 16.2104 38.0109 15.602C37.5382 14.9743 37.1843 14.2678 36.9663 13.5163C36.7314 12.7195 36.6141 11.8935 36.6181 11.0637C36.6146 10.2611 36.732 9.46228 36.9663 8.69346C37.1848 7.96361 37.5391 7.28004 38.0109 6.67746C38.5048 6.05523 39.1403 5.55603 39.8661 5.22013C40.5919 4.88423 41.3878 4.72105 42.1895 4.74375C42.9252 4.74129 43.6526 4.89732 44.3206 5.20089C44.975 5.49208 45.5294 5.96415 45.9165 6.55975H45.9653V0.42832H49.4254V17.2649H46.1371V15.7083H46.0883C45.7188 16.3343 45.1618 16.8325 44.4935 17.1346C43.7896 17.4337 43.0292 17.5825 42.2626 17.5712ZM43.1146 7.26603C42.6145 7.25053 42.119 7.36441 41.6776 7.59632C41.2975 7.8079 40.9756 8.10762 40.7398 8.46946C40.4965 8.84916 40.3232 9.26816 40.2279 9.70717C40.1214 10.1834 40.0685 10.6698 40.07 11.1575C40.0709 11.634 40.1282 12.1088 40.2407 12.5723C40.3456 13.0202 40.5312 13.446 40.7885 13.8295C41.0344 14.1931 41.3586 14.499 41.738 14.7255C42.156 14.9625 42.6324 15.0811 43.1146 15.0683C43.6092 15.0856 44.0996 14.9727 44.5353 14.7415C44.9108 14.5269 45.2254 14.2227 45.4499 13.8569C45.6843 13.4684 45.8492 13.0432 45.9374 12.5997C46.0352 12.1185 46.0838 11.6288 46.0825 11.138C46.0858 10.6504 46.0387 10.1637 45.9421 9.68546C45.8552 9.24935 45.6854 8.83331 45.4418 8.45917C45.2079 8.10752 44.8955 7.81316 44.5283 7.5986C44.0966 7.36419 43.6085 7.24927 43.1157 7.26603H43.1146ZM27.3022 17.5712C26.5269 17.5948 25.7539 17.4746 25.0237 17.2169C24.4744 17.0116 23.9907 16.6656 23.6228 16.2146C23.2665 15.7476 23.0209 15.2079 22.9043 14.6352C22.7612 13.9587 22.692 13.269 22.6977 12.578V5.07289H26.1578V11.9586C26.1056 12.7393 26.2739 13.5189 26.6441 14.2112C26.8423 14.472 27.1059 14.6776 27.409 14.8078C27.7122 14.938 28.0446 14.9884 28.3736 14.954C28.7557 14.9878 29.1405 14.9319 29.4965 14.7909C29.8524 14.6498 30.1693 14.4276 30.4211 14.1426C30.9121 13.3379 31.1338 12.4016 31.0548 11.466V5.07289H34.5149V17.2649H31.2254V15.5666H31.1523C30.7544 16.2359 30.1594 16.7703 29.4461 17.0992C28.7745 17.4074 28.0431 17.5684 27.3022 17.5712ZM6.3479 17.5712C5.62744 17.572 4.90875 17.5008 4.20291 17.3586C3.54545 17.2335 2.91533 16.9961 2.34113 16.6569C1.75285 16.3106 1.2668 15.8189 0.93124 15.2304C0.595681 14.642 0.422286 13.9774 0.428273 13.3026H3.71773C3.70957 13.6279 3.7897 13.9494 3.94987 14.234C4.09906 14.487 4.30318 14.7044 4.54764 14.8706C4.80345 15.0405 5.08804 15.1639 5.38799 15.2352C5.71127 15.3129 6.043 15.3512 6.37576 15.3495C6.63373 15.3477 6.89084 15.3197 7.14299 15.266C7.39806 15.2156 7.64411 15.1282 7.87308 15.0066C8.08895 14.8917 8.27611 14.7308 8.42093 14.5357C8.57339 14.3178 8.65033 14.0573 8.6403 13.7929C8.6403 13.2923 8.29209 12.9106 7.60495 12.6603C6.66168 12.3419 5.69664 12.0898 4.7171 11.906C4.21335 11.7917 3.71773 11.6649 3.243 11.5163C2.7917 11.379 2.36199 11.1805 1.96622 10.9266C1.60074 10.6911 1.29274 10.3789 1.06434 10.0123C0.825767 9.60007 0.706911 9.13117 0.720773 8.65689C0.693255 7.98124 0.858087 7.31147 1.19666 6.72317C1.5057 6.22867 1.93698 5.81936 2.45023 5.53346C2.99605 5.23414 3.58882 5.02671 4.20407 4.91975C4.86353 4.80147 5.5325 4.74218 6.20281 4.7426C6.86952 4.74147 7.53473 4.80501 8.18879 4.93232C8.79459 5.04474 9.37588 5.26015 9.90664 5.56889C10.4101 5.86839 10.8389 6.27534 11.1614 6.75975C11.5162 7.32553 11.7209 7.97002 11.7568 8.63403H8.46852C8.47458 8.36901 8.4075 8.10734 8.27443 7.87689C8.14137 7.64645 7.94729 7.45587 7.7129 7.32546C7.21171 7.08757 6.66039 6.97007 6.10415 6.9826C5.89281 6.98362 5.68166 6.99545 5.47156 7.01803C5.25794 7.03814 5.04861 7.08976 4.85058 7.17117C4.66712 7.24763 4.50421 7.365 4.37469 7.51403C4.23814 7.68506 4.16926 7.89907 4.18085 8.11632C4.17732 8.25551 4.20613 8.39365 4.26507 8.52021C4.324 8.64677 4.41152 8.75841 4.52094 8.8466C4.78526 9.05367 5.08748 9.20885 5.41121 9.30375C5.82292 9.43355 6.24185 9.54002 6.66594 9.6226C7.14183 9.7186 7.62584 9.82146 8.1029 9.92889C8.60093 10.0376 9.09295 10.1715 9.577 10.33C10.0313 10.4755 10.4615 10.6857 10.8538 10.954C11.2217 11.2082 11.529 11.5381 11.7545 11.9209C11.9943 12.3582 12.1121 12.8504 12.0957 13.3472C12.12 14.0515 11.9474 14.7488 11.5966 15.3632C11.2739 15.8957 10.8276 16.3453 10.2943 16.6752C9.72913 17.0151 9.10567 17.2506 8.45459 17.37C7.76061 17.5039 7.05508 17.5713 6.3479 17.5712ZM19.0171 17.3815C18.5075 17.3832 17.9985 17.3476 17.4942 17.2752C17.0495 17.2155 16.6199 17.0757 16.2267 16.8626C15.8618 16.6566 15.5624 16.3547 15.362 15.9906C15.1323 15.5291 15.0234 15.0184 15.0451 14.5049V7.31403H12.9512V5.07289H15.0463V1.41918H18.5063V5.07632H21.0402V7.31632H18.5063V13.3529C18.4578 13.7527 18.5621 14.156 18.7988 14.4843C19.1414 14.7145 19.5569 14.8151 19.9688 14.7677C20.158 14.7677 20.3472 14.7597 20.5283 14.7437C20.7094 14.7277 20.8765 14.7037 21.0402 14.6729V17.2672C20.7173 17.3167 20.3917 17.348 20.0652 17.3609C19.7263 17.3746 19.3734 17.3826 19.0182 17.3826L19.0171 17.3815ZM83.9995 17.2649H72.426V14.7415L78.9806 7.59632H72.9135V5.07289H83.5352V7.59632L76.9807 14.7415H83.9995V17.2637V17.2649ZM55.5899 17.2649H52.131V5.07289H55.5911V17.2637L55.5899 17.2649ZM55.5899 3.18718H52.131V0.42832H55.5911V3.18603L55.5899 3.18718Z" fill="white"/>
</svg>
