<svg width="17" height="16" viewBox="0 0 17 16" fill="none" xmlns="http://www.w3.org/2000/svg">
<path fill-rule="evenodd" clip-rule="evenodd" d="M16.5593 2.98934L12.8554 0L11.8086 1.14975L15.5125 4.13908L16.5593 2.98934ZM5.20771 1.22592L4.16095 0.0761719L0.457031 2.98886L1.50379 4.13861L5.20771 1.22592ZM7.70703 4.75195H8.91483V8.81439L12.1356 10.654L11.4915 11.5738L7.70703 9.35093V4.75195ZM8.50852 1.68652C4.48252 1.68652 1.26172 4.75251 1.26172 8.585C1.26172 12.4175 4.48252 15.4835 8.50852 15.4835C12.5345 15.4835 15.7553 12.4175 15.7553 8.585C15.7553 4.75251 12.5345 1.68652 8.50852 1.68652ZM2.87185 8.58521C2.87185 11.5746 5.36797 13.9507 8.50825 13.9507C11.6485 13.9507 14.1446 11.5746 14.1446 8.58521C14.1446 5.59587 11.6485 3.21973 8.50825 3.21973C5.36797 3.21973 2.87185 5.59587 2.87185 8.58521Z" fill="#2A292A"/>
</svg>
