<svg width="9" height="12" viewBox="0 0 9 12" fill="none" xmlns="http://www.w3.org/2000/svg">
<path fill-rule="evenodd" clip-rule="evenodd" d="M7.84294 5.03026H1.05519C0.923904 5.03026 0.810312 4.98231 0.714233 4.88633C0.618259 4.79039 0.570312 4.67674 0.570312 4.54545C0.570312 4.41414 0.618259 4.30046 0.714233 4.20449L4.10812 0.810607C4.20409 0.714767 4.31768 0.666687 4.44908 0.666687C4.58047 0.666687 4.69407 0.714767 4.78996 0.810607L8.18384 4.20449C8.27974 4.30057 8.32784 4.41414 8.32784 4.54545C8.32784 4.67677 8.27971 4.79039 8.18384 4.88633C8.08792 4.98231 7.97425 5.03026 7.84294 5.03026ZM1.05519 6.96984H7.84294C7.97425 6.96984 8.08795 7.01771 8.18384 7.11366C8.27974 7.20966 8.32784 7.32325 8.32784 7.45454C8.32784 7.58588 8.27971 7.69955 8.18384 7.79545L4.78996 11.1893C4.69407 11.2853 4.58037 11.3333 4.44908 11.3333C4.31779 11.3333 4.2042 11.2853 4.10812 11.1893L0.714233 7.79547C0.618259 7.69955 0.570312 7.58588 0.570312 7.45457C0.570312 7.32325 0.618259 7.20966 0.714233 7.11368C0.810206 7.01782 0.923798 6.96984 1.05519 6.96984Z" fill="black"/>
</svg>
