<svg width="18" height="18" viewBox="0 0 18 18" fill="none" xmlns="http://www.w3.org/2000/svg">
<path fill-rule="evenodd" clip-rule="evenodd" d="M9 18C13.9706 18 18 13.9706 18 9C18 4.02944 13.9706 0 9 0C4.02944 0 0 4.02944 0 9C0 13.9706 4.02944 18 9 18Z" fill="#FACA30"/>
<path d="M11.736 13.568H6C6.008 12.872 6.176 12.264 6.504 11.744C6.832 11.224 7.28 10.772 7.848 10.388C8.12 10.188 8.404 9.994 8.7 9.806C8.996 9.618 9.268 9.416 9.516 9.2C9.764 8.984 9.968 8.75 10.128 8.498C10.288 8.246 10.372 7.956 10.38 7.628C10.38 7.476 10.362 7.314 10.326 7.142C10.29 6.97 10.22 6.81 10.116 6.662C10.012 6.514 9.868 6.39 9.684 6.29C9.5 6.19 9.26 6.14 8.964 6.14C8.692 6.14 8.466 6.194 8.286 6.302C8.106 6.41 7.962 6.558 7.854 6.746C7.746 6.934 7.666 7.156 7.614 7.412C7.562 7.668 7.532 7.944 7.524 8.24H6.156C6.156 7.776 6.218 7.346 6.342 6.95C6.466 6.554 6.652 6.212 6.9 5.924C7.148 5.636 7.45 5.41 7.806 5.246C8.162 5.082 8.576 5 9.048 5C9.56 5 9.988 5.084 10.332 5.252C10.676 5.42 10.954 5.632 11.166 5.888C11.378 6.144 11.528 6.422 11.616 6.722C11.704 7.022 11.748 7.308 11.748 7.58C11.748 7.916 11.696 8.22 11.592 8.492C11.488 8.764 11.348 9.014 11.172 9.242C10.996 9.47 10.796 9.68 10.572 9.872C10.348 10.064 10.116 10.244 9.876 10.412C9.636 10.58 9.396 10.74 9.156 10.892C8.916 11.044 8.694 11.196 8.49 11.348C8.286 11.5 8.108 11.658 7.956 11.822C7.804 11.986 7.7 12.16 7.644 12.344H11.736V13.568Z" fill="#2A292A"/>
</svg>
